<svg xmlns="http://www.w3.org/2000/svg" width="4000" height="2246" viewBox="0 0 4000 2246">
  <defs>
    <style>
      .cls-1 {
        fill-rule: evenodd;
      }
    </style>
  </defs>
  <path id="Color_Fill_1" data-name="Color Fill 1" class="cls-1" d="M0,0H4000V1271H3643q-69-33.99-138-68v-1c73.17-14.68,143.73-99.34,156-175q3.495-36.5,7-73-21.495-48.995-43-98-11.505-9-23-18-23.505-20-47-40-28.995-14.5-58-29-12.495-7-25-14l-37-4c-40.21-7.152-78.54-7.256-120,0l-43,4-58,38q-15.495,9.5-31,19-9.495,21.5-19,43c-13.09,29.788-28.67,65.982-36,102q1.5,14,3,28,2.505,29.49,5,59,22.005,30.99,44,62c-0.33.67-.67,1.33-1,2q-7.995,3.495-16,7-27.495-24-55-48-85.485-71.49-171-143h-3q-132.48,105.489-265,211-4.005-3.495-8-7-24.495-27.99-49-56c1.67-2,3.33-4,5-6q12-10.005,24-20c38.25-30.06,74.18-67.124,99-110q13.995-36,28-72c-21.09-27.471-51.36-33.225-87-47l-72-26-90,19-127,25q-54.99,37-110,74-22.995,36.5-46,73l12,45q47.49,24,95,48-40.995,36-82,72c-1-.67-2-1.33-3-2q-41.49-59.49-83-119-147.99-89.491-296-179-23.505-14-47-28l-112,12q-10.005,10.5-20,21,51.99,219.478,104,439-127.98,1.995-256,4l4-4,27-33q18.495-30.99,37-62,7.995-57,16-114-8.505-16.005-17-32c-31.63-61.973-69.19-113.307-121-155q-16.995-16-34-32-53.49-18-107-36l-61-4-41-4-42,15c-55.99,19.731-118.83,35.826-149,81-20.3,30.393-26.75,81.877-28,131l-14-17L846,905c-16.6-11.853-62.268-53.406-80-57L519,1052l-15,39q-251.974-1.995-504-4V0Z"/>
</svg>
