<svg xmlns="http://www.w3.org/2000/svg" width="5184" height="3456" viewBox="0 0 5184 3456">
  <defs>
    <style>
      .cls-1 {
        fill-rule: evenodd;
      }
    </style>
  </defs>
  <path id="Color_Fill_1" data-name="Color Fill 1" class="cls-1" d="M0,0H5184V2006l-2055-15h2q24.99-10.005,50-20,21-13.995,42-28,13.995-8.505,28-17c60.7-65.49,122.37-205.88,94-333-11.01-49.36-38.8-92.13-62-130l-18-30c-5.15-14.63-3.39-23.89-13-33-9.07-8.59-30.99-8.97-41-16-53.8-37.81-143.88-96.26-242-80-36.51,6.05-63.87,1.94-94,13-40.9,15.01-73.59,48.77-106,73q-16.005,6.495-32,13c-37.35,24.3-75.45,106.98-82,162-1-.67-2-1.33-3-2-24.09-50.72-93.55-84.58-144-110-2.57-31.75-13.56-57.46-23-80l-144,12-15,24c-4.73,15.93,3.29,39.76-5,52-20.18,29.78-57.66,45.67-79,74-15.82,21-25.35,45.75-39,69q-14.505,25.5-29,51c-0.67-.33-1.33-0.67-2-1-4.39-22.4-16.66-43.09-27-60-41.47-67.82-91.09-104.12-174-130-27.69-8.64-70.24-23.86-108-16-50.76,10.57-94.74,28.22-133,51-78.74,46.89-120.34,119.21-139,227-8.99,51.92,7.87,133.7,23,164q24.99,33.99,50,68c7.12,13.77.71,54.06-8,59Q828.09,2007,0,1997V0ZM3001,1353c32.08-.29,121.15,18.44,142,31q19.5,16.005,39,32Q3199,1427,3216,1438l30,45c23.17,30.24,41.58,45.44,53,90,7.81,30.47,3.16,67.15,9,103q2.505,25.995,5,52-6.495,21.495-13,43-2.505,13.5-5,27-10.005,15.495-20,31c-7.39,13.78-9.4,38.31-21,48-34.12,28.48-68.99,52.62-108,77-15.76,9.85-35.83,24.69-55,30-14.48,4.01-70.22-3.68-84-6q-26.49.495-53,1c-77.39-16.41-142.9-60.34-181-117-14-20.83-39.6-59.48-46-84q0.495-11.505,1-23c0.02-35.59,3.39-78.47-19-92-1.68-111.55,45.85-186.45,108-235q12-13.005,24-26,29.49-16.5,59-33Q2950.49,1361.005,3001,1353ZM1876,1512h53c129.87,29.86,260.99,186.65,192,356-20.17,49.51-84.39,114.41-137,130q-42.99,6.495-86,13c-38.6,5.14-88.82-16.96-113-29-66.82-33.29-118.24-68.74-140-147q-2.505-22.005-5-44c-4.3-23.6-5.76-74.96,3-99,31.91-87.63,75.12-133.11,160-167l46-12Q1862.5,1512.505,1876,1512Zm548,18c77.48-1.28,119.14,22.26,165,51,12.38,7.76,42.85,25.15,49,37,9.47,18.26-8.59,27.72-6,46,4.46,31.47,16.12,61.79,21,91q-3,4.995-6,10c-4.04,12.97,3.94,60.57,8,68,3.23,5.91,13.29,6.75,17,13,9.72,21.03-10.12,46.79-17,63-19.11,44.99-130.76,160.64-185,88-22.46,10.83-41.55,30.74-71,32q-27.495-13.005-55-26c-25.51-10.64-51.56-18.48-72-34-32.61-24.75-66.97-94.67-77-144-9.09-44.67,10.65-144.79,25-167l43-52q11.505-13.5,23-27h34q27.495-17.505,55-35Q2399.5,1537,2424,1530Zm-260,340q11.505,22.5,23,45,1.005,10.995,2,22c10.81,15.79,62.5,44.98,46,68-39.28,18.4-105.15,13.14-126-22q7.5-14.505,15-29,6-18.495,12-37,7.5-9.495,15-19C2157.12,1885.55,2155.82,1878.87,2164,1870Zm543,21c16.49,16.49,32.69,41.11,46,60q1.995,4.5,4,9c24.3,14.98,45.76,17.19,64,39l-174-12v-1C2662.74,1949.9,2684.46,1920.83,2707,1891Z"/>
</svg>
